<svg width="57" height="58" viewBox="0 0 57 58" fill="none" xmlns="http://www.w3.org/2000/svg">
<path d="M0.109375 29.0042C0.109375 13.3988 12.7601 0.748047 28.3655 0.748047C43.971 0.748047 56.6217 13.3988 56.6217 29.0042C56.6217 44.6096 43.971 57.2604 28.3655 57.2604C12.7601 57.2604 0.109375 44.6096 0.109375 29.0042Z" fill="#FEF9C3"/>
<path d="M28.3662 40.7744C26.765 40.7744 25.2344 40.4683 23.7745 39.8561C22.3774 39.2596 21.1334 38.4158 20.0424 37.3248C18.9514 36.2338 18.1076 34.9898 17.5111 33.5926C16.8989 32.1327 16.5928 30.6022 16.5928 29.001C16.5928 27.3998 16.8989 25.8693 17.5111 24.4094C18.1076 23.0123 18.9514 21.7682 20.0424 20.6772C21.1334 19.5862 22.3774 18.7425 23.7745 18.1459C25.2344 17.5337 26.765 17.2276 28.3662 17.2276C29.9674 17.2276 31.4979 17.5337 32.9578 18.1459C34.3549 18.7425 35.599 19.5862 36.69 20.6772C37.781 21.7682 38.6247 23.0123 39.2212 24.4094C39.8335 25.8693 40.1396 27.3998 40.1396 29.001C40.1396 30.6022 39.8335 32.1327 39.2212 33.5926C38.6247 34.9898 37.781 36.2338 36.69 37.3248C35.599 38.4158 34.3549 39.2596 32.9578 39.8561C31.4979 40.4683 29.9674 40.7744 28.3662 40.7744ZM28.3662 38.4197C30.0772 38.4197 31.6627 37.988 33.1226 37.1247C34.5354 36.2927 35.6578 35.1703 36.4898 33.7575C37.3532 32.2976 37.7849 30.7121 37.7849 29.001C37.7849 27.2899 37.3532 25.7045 36.4898 24.2446C35.6578 22.8318 34.5354 21.7094 33.1226 20.8774C31.6627 20.014 30.0772 19.5823 28.3662 19.5823C26.6551 19.5823 25.0696 20.014 23.6097 20.8774C22.1969 21.7094 21.0745 22.8318 20.2425 24.2446C19.3791 25.7045 18.9475 27.2899 18.9475 29.001C18.9475 30.7121 19.3791 32.2976 20.2425 33.7575C21.0745 35.1703 22.1969 36.2927 23.6097 37.1247C25.0696 37.988 26.6551 38.4197 28.3662 38.4197ZM27.1888 32.533H29.5435V34.8877H27.1888V32.533ZM27.1888 23.1143H29.5435V30.1784H27.1888V23.1143Z" fill="#EAB308"/>
</svg>
