<svg width="24" height="23" viewBox="0 0 24 23" fill="none" xmlns="http://www.w3.org/2000/svg">
<path d="M18.9589 15.8805H20.7819V17.7047H2.55127V15.8805H4.37434V9.49594C4.37434 8.17038 4.70857 6.94211 5.37702 5.81113C6.02117 4.71663 6.89017 3.84711 7.98401 3.20257C9.11431 2.53371 10.3418 2.19928 11.6666 2.19928C12.9914 2.19928 14.2189 2.53371 15.3492 3.20257C16.443 3.84711 17.312 4.71663 17.9562 5.81113C18.6246 6.94211 18.9589 8.17038 18.9589 9.49594V15.8805ZM17.1358 15.8805V9.49594C17.1358 8.51089 16.8867 7.59273 16.3883 6.74145C15.9022 5.9145 15.2459 5.2578 14.4194 4.77135C13.5687 4.27275 12.6511 4.02345 11.6666 4.02345C10.6821 4.02345 9.76454 4.27275 8.91377 4.77135C8.08732 5.2578 7.43101 5.9145 6.94486 6.74145C6.44656 7.59273 6.1974 8.51089 6.1974 9.49594V15.8805H17.1358ZM8.932 19.5289H14.4012V21.353H8.932V19.5289Z" fill="#F97316"/>
</svg>
