<svg width="65" height="64" viewBox="0 0 65 64" fill="none" xmlns="http://www.w3.org/2000/svg">
<path d="M0.5 32C0.5 14.3269 14.8269 0 32.5 0C50.1731 0 64.5 14.3269 64.5 32C64.5 49.6731 50.1731 64 32.5 64C14.8269 64 0.5 49.6731 0.5 32Z" fill="#FEF2F2"/>
<path d="M32.4926 43.666C30.9065 43.666 29.3904 43.3627 27.9442 42.756C26.5603 42.1649 25.3279 41.3288 24.2472 40.2477C23.1665 39.1666 22.3307 37.9338 21.7398 36.5493C21.1333 35.1027 20.8301 33.586 20.8301 31.9993C20.8301 30.4127 21.1333 28.896 21.7398 27.4493C22.3307 26.0649 23.1665 24.8321 24.2472 23.751C25.3279 22.6699 26.5603 21.8338 27.9442 21.2427C29.3904 20.636 30.9065 20.3327 32.4926 20.3327C34.0787 20.3327 35.5948 20.636 37.041 21.2427C38.4249 21.8338 39.6572 22.6699 40.738 23.751C41.8187 24.8321 42.6545 26.0649 43.2454 27.4493C43.8519 28.896 44.1551 30.4127 44.1551 31.9993C44.1551 33.586 43.8519 35.1027 43.2454 36.5493C42.6545 37.9338 41.8187 39.1666 40.738 40.2477C39.6572 41.3288 38.4249 42.1649 37.041 42.756C35.5948 43.3627 34.0787 43.666 32.4926 43.666ZM32.4926 41.3327C34.1875 41.3327 35.7581 40.9049 37.2042 40.0493C38.6037 39.2249 39.7156 38.1127 40.5397 36.7127C41.395 35.266 41.8226 33.6949 41.8226 31.9993C41.8226 30.3038 41.395 28.7327 40.5397 27.286C39.7156 25.886 38.6037 24.7738 37.2042 23.9493C35.7581 23.0938 34.1875 22.666 32.4926 22.666C30.7976 22.666 29.2271 23.0938 27.7809 23.9493C26.3814 24.7738 25.2696 25.886 24.4455 27.286C23.5902 28.7327 23.1626 30.3038 23.1626 31.9993C23.1626 33.6949 23.5902 35.266 24.4455 36.7127C25.2696 38.1127 26.3814 39.2249 27.7809 40.0493C29.2271 40.9049 30.7976 41.3327 32.4926 41.3327ZM32.4926 30.3427L35.7814 27.0527L37.4375 28.7093L34.1487 31.9993L37.4375 35.2893L35.7814 36.946L32.4926 33.656L29.2038 36.946L27.5477 35.2893L30.8365 31.9993L27.5477 28.7093L29.2038 27.0527L32.4926 30.3427Z" fill="#EF4444"/>
</svg>
