<svg width="10" height="13" viewBox="0 0 10 13" fill="none" xmlns="http://www.w3.org/2000/svg">
<path d="M7.73594 8.51902V12.519C7.73594 12.6045 7.70678 12.6745 7.64847 12.7289C7.59016 12.7834 7.52214 12.8106 7.44439 12.8106C7.38997 12.8106 7.33944 12.7989 7.29279 12.7756L4.82048 11.2945L2.34818 12.7756C2.27821 12.8145 2.20435 12.8242 2.12661 12.8047C2.04886 12.7853 1.99055 12.7406 1.95168 12.6706C1.92058 12.624 1.90503 12.5734 1.90503 12.519V8.51902C1.36082 8.08365 0.937103 7.55498 0.633896 6.93302C0.31514 6.28773 0.155762 5.60357 0.155762 4.88054C0.155762 4.03311 0.369561 3.24788 0.797161 2.52485C1.20921 1.81737 1.76509 1.2576 2.4648 0.845552C3.18783 0.425727 3.97306 0.215815 4.82048 0.215815C5.66791 0.215815 6.45314 0.425727 7.17617 0.845552C7.87588 1.2576 8.43176 1.81737 8.84381 2.52485C9.27141 3.24788 9.48521 4.03311 9.48521 4.88054C9.48521 5.60357 9.32583 6.28773 9.00707 6.93302C8.70387 7.55498 8.28015 8.08365 7.73594 8.51902ZM3.07121 9.19541V10.9797L4.82048 9.9301L6.56976 10.9797V9.19541C6.00999 9.42864 5.4269 9.54526 4.82048 9.54526C4.21407 9.54526 3.63098 9.43253 3.07121 9.20707V9.19541ZM4.82048 8.37908C5.45022 8.37908 6.0372 8.2197 6.58142 7.90095C7.11009 7.58996 7.52991 7.17014 7.84089 6.64147C8.15965 6.09725 8.31903 5.50833 8.31903 4.87471C8.31903 4.24108 8.15965 3.65216 7.84089 3.10794C7.52991 2.57928 7.11009 2.16334 6.58142 1.86013C6.0372 1.54137 5.45022 1.382 4.82048 1.382C4.19075 1.382 3.60377 1.54137 3.05955 1.86013C2.53088 2.16334 2.11106 2.57928 1.80008 3.10794C1.48132 3.65216 1.32194 4.24108 1.32194 4.87471C1.32194 5.50833 1.48132 6.09725 1.80008 6.64147C2.11106 7.17014 2.53088 7.58996 3.05955 7.90095C3.60377 8.2197 4.19075 8.37908 4.82048 8.37908Z" fill="white"/>
</svg>
