<svg width="16" height="14" viewBox="0 0 16 14" fill="none" xmlns="http://www.w3.org/2000/svg">
<path d="M5.2517 12.1457L2.16113 12.834L2.84922 9.74232C2.3905 8.89454 2.16113 7.98065 2.16113 7.00065C2.16113 6.20732 2.31275 5.44898 2.61597 4.72565C2.91142 4.03343 3.32933 3.41704 3.86969 2.87648C4.41005 2.33593 5.02622 1.91787 5.7182 1.62232C6.44127 1.31898 7.19933 1.16732 7.99238 1.16732C8.78543 1.16732 9.5435 1.31898 10.2666 1.62232C10.9585 1.91787 11.5747 2.33593 12.1151 2.87648C12.6554 3.41704 13.0733 4.03343 13.3688 4.72565C13.672 5.44898 13.8236 6.20732 13.8236 7.00065C13.8236 7.79398 13.672 8.55232 13.3688 9.27565C13.0733 9.96787 12.6554 10.5843 12.1151 11.1248C11.5747 11.6654 10.9585 12.0834 10.2666 12.379C9.5435 12.6823 8.78543 12.834 7.99238 12.834C7.01273 12.834 6.09917 12.6045 5.2517 12.1457ZM5.41497 10.9207L5.79983 11.119C6.48403 11.4845 7.21488 11.6673 7.99238 11.6673C8.83986 11.6673 9.62513 11.4534 10.3482 11.0257C11.048 10.6134 11.6039 10.0573 12.0159 9.35732C12.4436 8.63398 12.6574 7.84843 12.6574 7.00065C12.6574 6.15287 12.4436 5.36732 12.0159 4.64398C11.6039 3.94398 11.048 3.38787 10.3482 2.97565C9.62513 2.54787 8.83986 2.33398 7.99238 2.33398C7.14491 2.33398 6.35963 2.54787 5.63656 2.97565C4.93681 3.38787 4.3809 3.94398 3.96882 4.64398C3.5412 5.36732 3.32738 6.15287 3.32738 7.00065C3.32738 7.77843 3.5101 8.50954 3.87552 9.19398L4.07378 9.57898L3.70058 11.294L5.41497 10.9207Z" fill="#3B82F6"/>
</svg>
