<svg width="32" height="32" viewBox="0 0 32 32" fill="none" xmlns="http://www.w3.org/2000/svg">
<path d="M0 16C0 7.16344 7.16344 0 16 0C24.8366 0 32 7.16344 32 16C32 24.8366 24.8366 32 16 32C7.16344 32 0 24.8366 0 16Z" fill="#DBEAFE"/>
<path d="M17.1586 10.1673C18.0061 10.1673 18.7914 10.3812 19.5145 10.809C20.2142 11.2212 20.7701 11.7773 21.1822 12.4773C21.6098 13.2007 21.8236 13.9862 21.8236 14.834C21.8236 15.4562 21.707 16.0512 21.4738 16.619C21.2483 17.1634 20.9276 17.6495 20.5116 18.0773C20.0956 18.5051 19.6194 18.8434 19.0829 19.0923C18.8341 19.629 18.4959 20.1054 18.0683 20.5215C17.6407 20.9376 17.1547 21.2584 16.6105 21.484C16.0429 21.7173 15.4481 21.834 14.8261 21.834C13.9787 21.834 13.1934 21.6201 12.4703 21.1923C11.7706 20.7801 11.2146 20.224 10.8026 19.524C10.3749 18.8007 10.1611 18.0151 10.1611 17.1673C10.1611 16.5451 10.2778 15.9501 10.511 15.3823C10.7365 14.8379 11.0572 14.3518 11.4732 13.924C11.8891 13.4962 12.3653 13.1579 12.9018 12.909C13.1506 12.3723 13.4888 11.8959 13.9165 11.4798C14.3441 11.0637 14.83 10.7429 15.3743 10.5173C15.9418 10.284 16.5366 10.1673 17.1586 10.1673ZM14.8261 13.6673C14.1964 13.6673 13.6093 13.8268 13.0651 14.1457C12.5364 14.4568 12.1165 14.8768 11.8055 15.4057C11.4868 15.9501 11.3274 16.5373 11.3274 17.1673C11.3274 17.7973 11.4868 18.3845 11.8055 18.929C12.1165 19.4579 12.5364 19.8779 13.0651 20.189C13.6093 20.5079 14.1964 20.6673 14.8261 20.6673C15.4559 20.6673 16.0429 20.5079 16.5872 20.189C17.1159 19.8779 17.5357 19.4579 17.8467 18.929C18.1655 18.3845 18.3249 17.7973 18.3249 17.1673C18.3249 16.5373 18.1655 15.9501 17.8467 15.4057C17.5357 14.8768 17.1159 14.4568 16.5872 14.1457C16.0429 13.8268 15.4559 13.6673 14.8261 13.6673ZM15.4093 14.2507V14.834H16.5755V16.0007H14.243C14.1653 16.0007 14.0972 16.0298 14.0389 16.0882C13.9806 16.1465 13.9514 16.2126 13.9514 16.2865C13.9514 16.3604 13.9748 16.4245 14.0214 16.479C14.0681 16.5334 14.1264 16.5684 14.1964 16.584H14.243H15.4093C15.6736 16.584 15.9166 16.6501 16.1382 16.7823C16.3598 16.9145 16.5366 17.0915 16.6688 17.3132C16.801 17.5348 16.8671 17.7779 16.8671 18.0423C16.8671 18.3068 16.801 18.5498 16.6688 18.7715C16.5366 18.9932 16.3598 19.1701 16.1382 19.3023C15.9166 19.4345 15.6736 19.5007 15.4093 19.5007V20.084H14.243V19.5007H13.0768V18.334H15.4093C15.487 18.334 15.555 18.3048 15.6134 18.2465C15.6717 18.1882 15.7008 18.122 15.7008 18.0482C15.7008 17.9743 15.6775 17.9101 15.6308 17.8557C15.5842 17.8012 15.5259 17.7662 15.4559 17.7507H15.4093H14.243C13.9787 17.7507 13.7357 17.6845 13.5141 17.5523C13.2925 17.4201 13.1156 17.2432 12.9835 17.0215C12.8513 16.7998 12.7852 16.5568 12.7852 16.2923C12.7852 16.0279 12.8513 15.7848 12.9835 15.5632C13.1156 15.3415 13.2925 15.1645 13.5141 15.0323C13.7357 14.9001 13.9787 14.834 14.243 14.834V14.2507H15.4093ZM17.1586 11.334C16.6455 11.334 16.1634 11.437 15.7125 11.6432C15.2615 11.8493 14.8728 12.139 14.5462 12.5123C14.6395 12.5045 14.7328 12.5007 14.8261 12.5007C15.6736 12.5007 16.4589 12.7145 17.182 13.1423C17.8817 13.5545 18.4376 14.1107 18.8497 14.8107C19.2773 15.534 19.4911 16.3195 19.4911 17.1673C19.4911 17.2607 19.4872 17.354 19.4795 17.4473C19.8527 17.1207 20.1423 16.7318 20.3483 16.2807C20.5544 15.8295 20.6574 15.3473 20.6574 14.834C20.6574 14.204 20.498 13.6168 20.1792 13.0723C19.8682 12.5434 19.4484 12.1234 18.9197 11.8123C18.3754 11.4934 17.7884 11.334 17.1586 11.334Z" fill="#2563EB"/>
</svg>
