<svg width="39" height="38" viewBox="0 0 39 38" fill="none" xmlns="http://www.w3.org/2000/svg">
<path d="M19.6802 11.5561C21.0414 11.5561 22.3419 11.702 23.5815 11.9939C24.7848 12.2614 25.8482 12.6475 26.7719 13.1522C27.6956 13.6569 28.4127 14.2376 28.9231 14.8943C29.4457 15.5753 29.7071 16.2868 29.7071 17.0286V20.6769C29.7071 21.4187 29.4457 22.1302 28.9231 22.8112C28.4127 23.4679 27.6956 24.0486 26.7719 24.5533C25.8482 25.058 24.7848 25.4441 23.5815 25.7116C22.3419 26.0035 21.0414 26.1494 19.6802 26.1494C17.8936 26.1494 16.2346 25.9062 14.7032 25.4197C13.2083 24.9576 12.0112 24.3252 11.1118 23.5226C10.1881 22.6957 9.70194 21.8018 9.65332 20.8411V17.0286C9.65332 16.2868 9.91463 15.5753 10.4372 14.8943C10.9477 14.2376 11.6648 13.6569 12.5885 13.1522C13.5121 12.6475 14.5756 12.2614 15.7788 11.9939C17.0185 11.702 18.319 11.5561 19.6802 11.5561ZM19.6802 22.5011C18.0151 22.5011 16.4534 22.2883 14.9949 21.8626C13.5729 21.4491 12.4001 20.8897 11.4764 20.1844V20.6769C11.4764 21.1026 11.683 21.5312 12.0962 21.963C12.5095 22.3947 13.0868 22.7869 13.8281 23.1395C14.5938 23.5044 15.4628 23.7902 16.4351 23.9969C17.4682 24.2158 18.5499 24.3252 19.6802 24.3252C21.1386 24.3252 22.512 24.1428 23.8003 23.778C24.9914 23.4496 25.9576 23.0118 26.699 22.4646C27.4404 21.9173 27.8354 21.3579 27.884 20.7864V20.1661C26.9603 20.8837 25.7875 21.4491 24.3655 21.8626C22.907 22.2883 21.3453 22.5011 19.6802 22.5011ZM19.6802 13.3802C18.5499 13.3802 17.4682 13.4897 16.4351 13.7086C15.4628 13.9153 14.5938 14.2011 13.8281 14.566C13.0868 14.9186 12.5095 15.3108 12.0962 15.7425C11.683 16.1743 11.4764 16.6029 11.4764 17.0286C11.4764 17.4542 11.683 17.8829 12.0962 18.3146C12.5095 18.7463 13.0868 19.1385 13.8281 19.4912C14.5938 19.856 15.4628 20.1418 16.4351 20.3486C17.4682 20.5675 18.5499 20.6769 19.6802 20.6769C20.8105 20.6769 21.8922 20.5675 22.9252 20.3486C23.8975 20.1418 24.7665 19.856 25.5322 19.4912C26.2736 19.1385 26.8509 18.7463 27.2641 18.3146C27.6774 17.8829 27.884 17.4542 27.884 17.0286C27.884 16.6029 27.6774 16.1743 27.2641 15.7425C26.8509 15.3108 26.2736 14.9186 25.5322 14.566C24.7665 14.2011 23.8975 13.9153 22.9252 13.7086C21.8922 13.4897 20.8105 13.3802 19.6802 13.3802Z" fill="#374151"/>
</svg>
