<svg width="26" height="26" viewBox="0 0 26 26" fill="none" xmlns="http://www.w3.org/2000/svg">
<path d="M13.1524 23.3457C11.7561 23.3457 10.4215 23.0788 9.14841 22.5449C7.9301 22.0247 6.84525 21.2889 5.89388 20.3376C4.9425 19.3862 4.20672 18.3013 3.68654 17.083C3.15268 15.81 2.88574 14.4753 2.88574 13.079C2.88574 11.6828 3.15268 10.3481 3.68654 9.07504C4.20672 7.85673 4.9425 6.77188 5.89388 5.8205C6.84525 4.86913 7.9301 4.13335 9.14841 3.61317C10.4215 3.0793 11.7561 2.81237 13.1524 2.81237C14.5487 2.81237 15.8833 3.0793 17.1564 3.61317C18.3747 4.13335 19.4596 4.86913 20.4109 5.8205C21.3623 6.77188 22.0981 7.85673 22.6183 9.07504C23.1521 10.3481 23.4191 11.6828 23.4191 13.079C23.4191 14.4753 23.1521 15.81 22.6183 17.083C22.0981 18.3013 21.3623 19.3862 20.4109 20.3376C19.4596 21.2889 18.3747 22.0247 17.1564 22.5449C15.8833 23.0788 14.5487 23.3457 13.1524 23.3457ZM13.1524 21.2924C14.6445 21.2924 16.0271 20.9159 17.3001 20.163C18.5321 19.4375 19.5109 18.4588 20.2364 17.2268C20.9893 15.9537 21.3657 14.5711 21.3657 13.079C21.3657 11.5869 20.9893 10.2044 20.2364 8.9313C19.5109 7.6993 18.5321 6.72055 17.3001 5.99504C16.0271 5.24215 14.6445 4.8657 13.1524 4.8657C11.6603 4.8657 10.2777 5.24215 9.00468 5.99504C7.77268 6.72055 6.79392 7.6993 6.06841 8.9313C5.31552 10.2044 4.93908 11.5869 4.93908 13.079C4.93908 14.5711 5.31552 15.9537 6.06841 17.2268C6.79392 18.4588 7.77268 19.4375 9.00468 20.163C10.2777 20.9159 11.6603 21.2924 13.1524 21.2924ZM9.55908 15.1324H15.2057C15.3426 15.1324 15.4624 15.081 15.5651 14.9784C15.6677 14.8757 15.7191 14.7559 15.7191 14.619C15.7191 14.4821 15.6677 14.3624 15.5651 14.2597C15.4624 14.157 15.3426 14.1057 15.2057 14.1057H11.0991C10.6337 14.1057 10.2059 13.9893 9.81574 13.7566C9.42561 13.5239 9.11419 13.2125 8.88148 12.8224C8.64876 12.4322 8.53241 12.0045 8.53241 11.539C8.53241 11.0736 8.64876 10.6458 8.88148 10.2557C9.11419 9.86557 9.42561 9.55415 9.81574 9.32144C10.2059 9.08873 10.6337 8.97237 11.0991 8.97237H12.1257V6.91904H14.1791V8.97237H16.7457V11.0257H11.0991C10.9622 11.0257 10.8424 11.077 10.7397 11.1797C10.6371 11.2824 10.5857 11.4021 10.5857 11.539C10.5857 11.6759 10.6371 11.7957 10.7397 11.8984C10.8424 12.001 10.9622 12.0524 11.0991 12.0524H15.2057C15.6712 12.0524 16.0989 12.1687 16.4891 12.4014C16.8792 12.6341 17.1906 12.9456 17.4233 13.3357C17.6561 13.7258 17.7724 14.1536 17.7724 14.619C17.7724 15.0845 17.6561 15.5122 17.4233 15.9024C17.1906 16.2925 16.8792 16.6039 16.4891 16.8366C16.0989 17.0693 15.6712 17.1857 15.2057 17.1857H14.1791V19.239H12.1257V17.1857H9.55908V15.1324Z" fill="#3B82F6"/>
</svg>
