<svg width="26" height="26" viewBox="0 0 26 26" fill="none" xmlns="http://www.w3.org/2000/svg">
<path d="M2.57117 4.866C2.57117 4.57854 2.67041 4.33556 2.8689 4.13707C3.06739 3.93858 3.31037 3.83934 3.59783 3.83934H22.0778C22.3653 3.83934 22.6083 3.93858 22.8068 4.13707C23.0053 4.33556 23.1045 4.57854 23.1045 4.866V10.5127C22.6391 10.5127 22.2113 10.629 21.8212 10.8617C21.431 11.0944 21.1196 11.4059 20.8869 11.796C20.6542 12.1861 20.5378 12.6139 20.5378 13.0793C20.5378 13.5448 20.6542 13.9725 20.8869 14.3627C21.1196 14.7528 21.431 15.0642 21.8212 15.2969C22.2113 15.5296 22.6391 15.646 23.1045 15.646V21.2927C23.1045 21.5801 23.0053 21.8231 22.8068 22.0216C22.6083 22.2201 22.3653 22.3193 22.0778 22.3193H3.59783C3.31037 22.3193 3.06739 22.2201 2.8689 22.0216C2.67041 21.8231 2.57117 21.5801 2.57117 21.2927V4.866ZM8.8133 20.266C8.92281 19.9648 9.11103 19.7184 9.37797 19.5268C9.6449 19.3352 9.94263 19.2393 10.2712 19.2393C10.5997 19.2393 10.8974 19.3352 11.1644 19.5268C11.4313 19.7184 11.6195 19.9648 11.729 20.266H21.0512V17.2271C20.2846 16.8438 19.6652 16.2791 19.1929 15.5331C18.7206 14.787 18.4845 13.9691 18.4845 13.0793C18.4845 12.1896 18.7206 11.3716 19.1929 10.6256C19.6652 9.87956 20.2846 9.31489 21.0512 8.9316V5.89267H11.729C11.6195 6.19382 11.4313 6.44023 11.1644 6.63187C10.8974 6.82351 10.5997 6.91934 10.2712 6.91934C9.94263 6.91934 9.6449 6.82351 9.37797 6.63187C9.11103 6.44023 8.92281 6.19382 8.8133 5.89267H4.6245V20.266H8.8133ZM10.2712 12.0527C9.84681 12.0527 9.48406 11.9021 9.1829 11.6009C8.88174 11.2998 8.73117 10.937 8.73117 10.5127C8.73117 10.0883 8.88174 9.72556 9.1829 9.4244C9.48406 9.12325 9.84681 8.97267 10.2712 8.97267C10.6955 8.97267 11.0583 9.12325 11.3594 9.4244C11.6606 9.72556 11.8112 10.0883 11.8112 10.5127C11.8112 10.937 11.6606 11.2998 11.3594 11.6009C11.0583 11.9021 10.6955 12.0527 10.2712 12.0527ZM10.2712 17.186C9.84681 17.186 9.48406 17.0354 9.1829 16.7343C8.88174 16.4331 8.73117 16.0704 8.73117 15.646C8.73117 15.2216 8.88174 14.8589 9.1829 14.5577C9.48406 14.2566 9.84681 14.106 10.2712 14.106C10.6955 14.106 11.0583 14.2566 11.3594 14.5577C11.6606 14.8589 11.8112 15.2216 11.8112 15.646C11.8112 16.0704 11.6606 16.4331 11.3594 16.7343C11.0583 17.0354 10.6955 17.186 10.2712 17.186Z" fill="#EAB308"/>
</svg>
