<svg width="26" height="26" viewBox="0 0 26 26" fill="none" xmlns="http://www.w3.org/2000/svg">
<path d="M17.6113 3.5721C18.6379 3.5721 19.5825 3.83903 20.4449 4.3729C21.3073 4.90676 21.9849 5.63227 22.4777 6.54943C22.9979 7.50765 23.2579 8.56854 23.2579 9.7321C23.2579 11.32 22.8883 12.8463 22.1491 14.311C21.5195 15.5567 20.6228 16.7545 19.4593 17.9044C18.5558 18.8078 17.4812 19.6908 16.2355 20.5532C15.5374 21.0323 14.6203 21.6072 13.4841 22.278L12.9913 22.5654L12.4985 22.278C11.3623 21.6072 10.4451 21.0323 9.74701 20.5532C8.50132 19.6908 7.42674 18.8078 6.52328 17.9044C5.35972 16.7545 4.4631 15.5567 3.83341 14.311C3.09421 12.8463 2.72461 11.32 2.72461 9.7321C2.72461 8.56854 2.9847 7.50765 3.50488 6.54943C3.99768 5.63227 4.67528 4.90676 5.53768 4.3729C6.40008 3.83903 7.34461 3.5721 8.37128 3.5721C9.26105 3.58578 10.144 3.80481 11.0201 4.22916C11.7593 4.58507 12.4163 5.0505 12.9913 5.62543C13.5662 5.0505 14.2233 4.58507 14.9625 4.22916C15.8386 3.79112 16.7215 3.5721 17.6113 3.5721ZM13.9563 19.6086C14.8872 19.02 15.7154 18.4382 16.4409 17.8633C18.0014 16.6176 19.1787 15.3377 19.9726 14.0236C20.7939 12.6547 21.2046 11.231 21.2046 9.75263C21.2046 8.95867 21.0472 8.24685 20.7323 7.61716C20.4175 6.98747 19.9863 6.50152 19.4387 6.1593C18.8912 5.81707 18.282 5.63912 17.6113 5.62543C17.0637 5.62543 16.5093 5.7589 15.9481 6.02583C15.3868 6.29276 14.8872 6.64525 14.4491 7.0833L12.9913 8.54116L11.5334 7.0833C11.0954 6.64525 10.5957 6.29276 10.0345 6.02583C9.47323 5.7589 8.91883 5.62543 8.37128 5.62543C7.71421 5.62543 7.1119 5.80338 6.56434 6.1593C6.01679 6.51521 5.58216 7.00458 5.26048 7.62743C4.93879 8.25027 4.77794 8.95867 4.77794 9.75263C4.77794 11.231 5.18861 12.6547 6.00994 14.0236C6.8039 15.3377 7.98114 16.6176 9.54168 17.8633C10.2672 18.4382 11.0954 19.02 12.0262 19.6086C12.3137 19.7866 12.6354 19.9782 12.9913 20.1836C13.3472 19.9782 13.6689 19.7866 13.9563 19.6086Z" fill="#EC4899"/>
</svg>
