<svg width="24" height="23" viewBox="0 0 24 23" fill="none" xmlns="http://www.w3.org/2000/svg">
<path d="M12.0033 20.3105C10.7636 20.3105 9.57859 20.0734 8.44829 19.5991C7.36661 19.137 6.40342 18.4833 5.55873 17.6381C4.71404 16.7929 4.06078 15.8292 3.59894 14.7468C3.12494 13.6159 2.88794 12.4301 2.88794 11.1897C2.88794 9.94928 3.12494 8.76357 3.59894 7.63259C4.06078 6.55025 4.71404 5.58648 5.55873 4.74128C6.40342 3.89609 7.36661 3.24243 8.44829 2.78031C9.57859 2.30602 10.7636 2.06888 12.0033 2.06888C13.243 2.06888 14.428 2.30602 15.5583 2.78031C16.6399 3.24243 17.6031 3.89609 18.4478 4.74128C19.2925 5.58648 19.9458 6.55025 20.4076 7.63259C20.8816 8.76357 21.1186 9.94928 21.1186 11.1897C21.1186 12.4301 20.8816 13.6159 20.4076 14.7468C19.9458 15.8292 19.2925 16.7929 18.4478 17.6381C17.6031 18.4833 16.6399 19.137 15.5583 19.5991C14.428 20.0734 13.243 20.3105 12.0033 20.3105ZM9.92498 18.1763C9.01344 16.2548 8.49691 14.23 8.37537 12.1018H4.7657C4.88724 13.0504 5.18197 13.9381 5.64989 14.7651C6.11781 15.592 6.71942 16.3004 7.45472 16.8902C8.19003 17.48 9.01344 17.9087 9.92498 18.1763ZM10.2167 12.1018C10.3504 14.2908 10.9459 16.346 12.0033 18.2675C13.0607 16.346 13.6562 14.2908 13.7899 12.1018H10.2167ZM19.2408 12.1018H15.6312C15.5096 14.23 14.9992 16.2548 14.0998 18.1763C14.9992 17.9087 15.8165 17.48 16.5518 16.8902C17.2871 16.3004 17.8887 15.592 18.3567 14.7651C18.8246 13.9381 19.1193 13.0504 19.2408 12.1018ZM4.7657 10.2776H8.37537C8.49691 8.14944 9.01344 6.12461 9.92498 4.20316C9.01344 4.4707 8.19003 4.89938 7.45472 5.48919C6.71942 6.07901 6.11781 6.78739 5.64989 7.61435C5.18197 8.4413 4.88724 9.32906 4.7657 10.2776ZM10.2167 10.2776H13.7899C13.6562 8.08863 13.0607 6.0334 12.0033 4.11195C10.9459 6.0334 10.3504 8.08863 10.2167 10.2776ZM14.0998 4.20316C14.9992 6.12461 15.5096 8.14944 15.6312 10.2776H19.2408C19.1193 9.32906 18.8246 8.4413 18.3567 7.61435C17.8887 6.78739 17.2871 6.07901 16.5518 5.48919C15.8165 4.89938 14.9992 4.4707 14.0998 4.20316Z" fill="#9333EA"/>
</svg>
