<svg width="24" height="23" viewBox="0 0 24 23" fill="none" xmlns="http://www.w3.org/2000/svg">
<path d="M17.4728 8.39392H19.2959C19.5511 8.39392 19.7668 8.48209 19.9431 8.65842C20.1193 8.83476 20.2074 9.05062 20.2074 9.306V20.251C20.2074 20.5064 20.1193 20.7222 19.9431 20.8986C19.7668 21.0749 19.5511 21.1631 19.2959 21.1631H4.71134C4.45611 21.1631 4.24038 21.0749 4.06415 20.8986C3.88792 20.7222 3.7998 20.5064 3.7998 20.251V9.306C3.7998 9.05062 3.88792 8.83476 4.06415 8.65842C4.24038 8.48209 4.45611 8.39392 4.71134 8.39392H6.5344V7.48184C6.5344 6.49679 6.78356 5.57862 7.28186 4.72734C7.76801 3.90039 8.42432 3.24369 9.25077 2.75724C10.1015 2.25864 11.0191 2.00934 12.0036 2.00934C12.9881 2.00934 13.9057 2.25864 14.7564 2.75724C15.5829 3.24369 16.2392 3.90039 16.7253 4.72734C17.2237 5.57862 17.4728 6.49679 17.4728 7.48184V8.39392ZM5.62287 10.2181V19.3389H18.3843V10.2181H5.62287ZM11.0921 13.8664H12.9151V15.6906H11.0921V13.8664ZM7.44594 13.8664H9.269V15.6906H7.44594V13.8664ZM14.7382 13.8664H16.5613V15.6906H14.7382V13.8664ZM15.6497 8.39392V7.48184C15.6497 6.82514 15.4857 6.21708 15.1575 5.65767C14.8294 5.09826 14.3857 4.65438 13.8267 4.32603C13.2676 3.99768 12.6599 3.8335 12.0036 3.8335C11.3473 3.8335 10.7396 3.99768 10.1805 4.32603C9.62146 4.65438 9.17785 5.09826 8.8497 5.65767C8.52155 6.21708 8.35747 6.82514 8.35747 7.48184V8.39392H15.6497Z" fill="#246596"/>
</svg>
