<svg width="24" height="23" viewBox="0 0 24 23" fill="none" xmlns="http://www.w3.org/2000/svg">
<path d="M10.1807 7.22598C10.1807 8.38128 10.4724 9.45754 11.0558 10.4548C11.6148 11.4155 12.3745 12.1755 13.3346 12.735C14.3312 13.3187 15.4068 13.6106 16.5614 13.6106C17.4365 13.6106 18.2751 13.4403 19.0773 13.0998C19.8429 12.7714 20.5236 12.3032 21.1191 11.6952V11.7864C21.1191 13.0268 20.8821 14.2125 20.4081 15.3435C19.9463 16.4259 19.293 17.3896 18.4483 18.2348C17.6036 19.08 16.6404 19.7337 15.5587 20.1958C14.4284 20.6701 13.2434 20.9072 12.0038 20.9072C10.7641 20.9072 9.57908 20.6701 8.44878 20.1958C7.36709 19.7337 6.40391 19.08 5.55922 18.2348C4.71453 17.3896 4.06127 16.4259 3.59942 15.3435C3.12543 14.2125 2.88843 13.0268 2.88843 11.7864C2.88843 10.546 3.12543 9.36025 3.59942 8.22927C4.06127 7.14693 4.71453 6.18316 5.55922 5.33796C6.40391 4.49277 7.36709 3.83911 8.44878 3.37699C9.57908 2.9027 10.7641 2.66556 12.0038 2.66556H12.0949C11.4872 3.26146 11.0193 3.94248 10.6912 4.70863C10.3508 5.51126 10.1807 6.35038 10.1807 7.22598ZM4.71149 11.7864C4.71149 13.112 5.04572 14.3402 5.71418 15.4712C6.35833 16.5657 7.22733 17.4352 8.32117 18.0798C9.45147 18.7486 10.679 19.0831 12.0038 19.0831C13.3771 19.0831 14.6472 18.7243 15.814 18.0068C16.9443 17.3136 17.8193 16.3833 18.4392 15.2158C17.8193 15.3618 17.1934 15.4347 16.5614 15.4347C15.0787 15.4347 13.6992 15.0638 12.4231 14.322C11.1834 13.5923 10.1989 12.6073 9.4697 11.3668C8.72832 10.0899 8.35763 8.70963 8.35763 7.22598C8.35763 6.5936 8.43055 5.9673 8.5764 5.34708C7.40963 5.9673 6.47987 6.8429 5.7871 7.97389C5.07003 9.14135 4.71149 10.4122 4.71149 11.7864Z" fill="#374151"/>
</svg>
