<svg width="14" height="12" viewBox="0 0 14 12" fill="none" xmlns="http://www.w3.org/2000/svg">
<path d="M12.1573 10.0326H13.3264V11.2017H0.466309V10.0326H1.6354V1.26434C1.6354 1.10067 1.69191 0.962326 1.80492 0.849313C1.91794 0.7363 2.05628 0.679794 2.21995 0.679794H8.06543C8.22911 0.679794 8.36745 0.7363 8.48046 0.849313C8.59348 0.962326 8.64998 1.10067 8.64998 1.26434V10.0326H10.9882V5.35618H9.81908V4.18708H11.5727C11.7364 4.18708 11.8747 4.24359 11.9878 4.3566C12.1008 4.46961 12.1573 4.60796 12.1573 4.77163V10.0326ZM2.8045 1.84889V10.0326H7.48089V1.84889H2.8045ZM3.9736 5.35618H6.31179V6.52528H3.9736V5.35618ZM3.9736 3.01799H6.31179V4.18708H3.9736V3.01799Z" fill="white"/>
</svg>
