<svg width="24" height="23" viewBox="0 0 24 23" fill="none" xmlns="http://www.w3.org/2000/svg">
<path d="M17.1063 15.9193L21.0077 19.823L19.7133 21.1182L15.812 17.2144C15.0949 17.786 14.311 18.2238 13.4602 18.5278C12.5608 18.844 11.6371 19.0021 10.6892 19.0021C9.20639 19.0021 7.82694 18.6312 6.55079 17.8894C5.31111 17.1597 4.33273 16.1747 3.61565 14.9342C2.86212 13.6573 2.48535 12.277 2.48535 10.7934C2.48535 9.30973 2.86212 7.92944 3.61565 6.65252C4.33273 5.41209 5.31111 4.43312 6.55079 3.71561C7.82694 2.96163 9.20639 2.58463 10.6892 2.58463C12.1719 2.58463 13.5514 2.96163 14.8275 3.71561C16.0672 4.43312 17.0517 5.41209 17.7809 6.65252C18.5223 7.92944 18.893 9.30973 18.893 10.7934C18.893 11.7419 18.735 12.6662 18.419 13.5661C18.1151 14.4174 17.6776 15.2018 17.1063 15.9193ZM15.265 15.2443C15.8363 14.6606 16.2799 13.9918 16.5959 13.2378C16.9119 12.4595 17.0699 11.6447 17.0699 10.7934C17.0699 9.63808 16.7782 8.56182 16.1948 7.56461C15.6357 6.60388 14.8761 5.84381 13.916 5.2844C12.9194 4.70066 11.8438 4.4088 10.6892 4.4088C9.53454 4.4088 8.45893 4.70066 7.46232 5.2844C6.50218 5.84381 5.74256 6.60388 5.18349 7.56461C4.60011 8.56182 4.30842 9.63808 4.30842 10.7934C4.30842 11.9487 4.60011 13.0249 5.18349 14.0222C5.74256 14.9829 6.50218 15.743 7.46232 16.3024C8.45893 16.8861 9.53454 17.178 10.6892 17.178C11.5399 17.178 12.3542 17.0199 13.1321 16.7037C13.8856 16.3875 14.5541 15.9436 15.1374 15.372L15.265 15.2443Z" fill="#374151"/>
</svg>
