<svg width="24" height="23" viewBox="0 0 24 23" fill="none" xmlns="http://www.w3.org/2000/svg">
<path d="M16.5612 6.28655H21.1189V8.11072H19.2958V19.9678C19.2958 20.2232 19.2077 20.439 19.0314 20.6154C18.8552 20.7917 18.6395 20.8799 18.3843 20.8799H5.62278C5.36755 20.8799 5.15182 20.7917 4.97559 20.6154C4.79937 20.439 4.71125 20.2232 4.71125 19.9678V8.11072H2.88818V6.28655H7.44585V3.5503C7.44585 3.29492 7.53397 3.07906 7.7102 2.90272C7.88643 2.72639 8.10215 2.63822 8.35738 2.63822H15.6497C15.9049 2.63822 16.1206 2.72639 16.2968 2.90272C16.4731 3.07906 16.5612 3.29492 16.5612 3.5503V6.28655ZM17.4727 8.11072H6.53432V19.0557H17.4727V8.11072ZM9.26892 10.847H11.092V16.3195H9.26892V10.847ZM12.9151 10.847H14.7381V16.3195H12.9151V10.847ZM9.26892 4.46238V6.28655H14.7381V4.46238H9.26892Z" fill="#EF4444"/>
</svg>
